# xmcd
#
# Track frame offsets:
#	150
#	12925
#	25655
#	39182
#	53300
#	63965
#	74912
#	83545
#	94195
#	110915
#	126467
#	146347
#	156960
#	171725
#	179985
#	190385
#	205385
#	217320
#	231547
#
# Disc length: 3218 seconds
#
# Revision: 5
# Processed by: cddbd v1.5.2PL0 Copyright (c) Steve Scherf et al.
# Submitted via: EasyCDDAExtractor 15.3.0.1
#
DISCID=270c9013
DTITLE=Wanda Jackson - Tears Will Be the Chaser for Your Wine CD 07
DYEAR=1997
DGENRE=USA Country
TTITLE0=Let's Have A Party
TTITLE1=Jackson (& Mike Bost)
TTITLE2=Right Or Wrong
TTITLE3=Release Me
TTITLE4=A Girl Don't Have To Drink To Have Fun
TTITLE5=Tears Will Be The Chaser For Your Wine
TTITLE6=A Little Bitty Tear
TTITLE7=I've Got The Tiger By The Tail (& Mike Bost)
TTITLE8=If I Had A Hammer
TTITLE9=Silver Threads And Golden Needles
TTITLE10=D I V O R C E
TTITLE11=Hold Me Tight
TTITLE12=Games People Play (& Mike Bost)
TTITLE13=In The Middle Of A Heartache
TTITLE14=Jambalaya
TTITLE15=The Long Legged Guitar Pickin' Man (& Mike Bost)
TTITLE16=Warm Red Wine
TTITLE17=This Land Is Your Land
TTITLE18=Cowboy Yodel
EXTD=
EXTT0=
EXTT1=
EXTT2=
EXTT3=
EXTT4=
EXTT5=
EXTT6=
EXTT7=
EXTT8=
EXTT9=
EXTT10=
EXTT11=
EXTT12=
EXTT13=
EXTT14=
EXTT15=
EXTT16=
EXTT17=
EXTT18=
PLAYORDER=
